{"glyphs":{"0":{"ha":1153,"x_min":92,"x_max":1195,"o":"m 178 780 l 371 949 l 1049 949 l 1195 780 l 1109 170 l 916 0 l 237 0 l 92 170 l 178 780 m 1055 746 l 324 136 l 901 136 l 978 203 l 1055 746 m 232 203 l 962 814 l 386 814 l 309 746 l 232 203 z "},"1":{"ha":475,"x_min":182,"x_max":541,"o":"m 269 949 l 541 949 l 407 0 l 271 0 l 386 814 l 182 814 l 269 949 z "},"2":{"ha":1153,"x_min":68,"x_max":1195,"o":"m 68 0 l 120 373 l 313 543 l 958 543 l 1035 610 l 1055 746 l 996 814 l 182 814 l 269 949 l 1049 949 l 1195 780 l 1166 576 l 972 407 l 328 407 l 251 339 l 222 136 l 1104 136 l 1085 0 l 68 0 z "},"3":{"ha":1153,"x_min":87,"x_max":1195,"o":"m 87 136 l 901 136 l 978 203 l 997 339 l 939 407 l 125 407 l 144 543 l 958 543 l 1035 610 l 1055 746 l 996 814 l 182 814 l 269 949 l 1049 949 l 1195 780 l 1166 576 l 1050 475 l 1137 373 l 1109 170 l 916 0 l 136 0 l 87 136 z "},"4":{"ha":1153,"x_min":149,"x_max":1219,"o":"m 949 0 l 1006 407 l 294 407 l 149 576 l 201 949 l 337 949 l 289 610 l 347 543 l 1025 543 l 1083 949 l 1219 949 l 1085 0 l 949 0 z "},"5":{"ha":1153,"x_min":87,"x_max":1219,"o":"m 1219 949 l 1200 814 l 318 814 l 279 543 l 991 543 l 1137 373 l 1109 170 l 916 0 l 136 0 l 87 136 l 901 136 l 978 203 l 997 339 l 939 407 l 125 407 l 201 949 l 1219 949 z "},"6":{"ha":1153,"x_min":92,"x_max":1200,"o":"m 997 339 l 939 407 l 328 407 l 347 543 l 991 543 l 1137 373 l 1109 170 l 916 0 l 237 0 l 92 170 l 178 780 l 371 949 l 1151 949 l 1200 814 l 386 814 l 309 746 l 232 203 l 290 136 l 901 136 l 978 203 l 997 339 z "},"7":{"ha":1153,"x_min":68,"x_max":1219,"o":"m 68 0 l 1017 814 l 182 814 l 269 949 l 1219 949 l 1200 814 l 251 0 l 68 0 z "},"8":{"ha":1153,"x_min":92,"x_max":1195,"o":"m 92 170 l 120 373 l 236 475 l 149 576 l 178 780 l 371 949 l 1049 949 l 1195 780 l 1166 576 l 1050 475 l 1137 373 l 1109 170 l 916 0 l 237 0 l 92 170 m 386 814 l 309 746 l 289 610 l 347 543 l 958 543 l 1035 610 l 1055 746 l 996 814 l 386 814 m 328 407 l 251 339 l 232 203 l 290 136 l 901 136 l 978 203 l 997 339 l 939 407 l 328 407 z "},"9":{"ha":1153,"x_min":87,"x_max":1195,"o":"m 289 610 l 347 543 l 958 543 l 939 407 l 294 407 l 149 576 l 178 780 l 371 949 l 1049 949 l 1195 780 l 1109 170 l 916 0 l 136 0 l 87 136 l 901 136 l 978 203 l 1055 746 l 996 814 l 386 814 l 309 746 l 289 610 z "}," ":{"ha":543,"x_min":0,"x_max":0,"o":""},"!":{"ha":271,"x_min":68,"x_max":337,"o":"m 68 0 l 87 136 l 222 136 l 203 0 l 68 0 m 106 271 l 201 949 l 337 949 l 241 271 l 106 271 z "},"\"":{"ha":543,"x_min":153,"x_max":608,"o":"m 337 949 l 294 644 l 153 610 l 201 949 l 337 949 m 608 949 l 566 644 l 425 610 l 473 949 l 608 949 z "},"#":{"ha":1289,"x_min":96,"x_max":1326,"o":"m 676 949 l 589 746 l 1064 746 l 1151 949 l 1286 949 l 1200 746 l 1326 746 l 1306 610 l 1141 610 l 1025 339 l 1268 339 l 1249 203 l 968 203 l 882 0 l 746 0 l 832 203 l 357 203 l 271 0 l 136 0 l 222 203 l 96 203 l 115 339 l 279 339 l 395 610 l 153 610 l 173 746 l 454 746 l 541 949 l 676 949 m 415 339 l 890 339 l 1006 610 l 531 610 l 415 339 z "},"$":{"ha":1153,"x_min":87,"x_max":1200,"o":"m 644 0 l 625 -136 l 490 -136 l 509 0 l 136 0 l 87 136 l 528 136 l 566 407 l 294 407 l 149 576 l 178 780 l 371 949 l 642 949 l 661 1085 l 797 1085 l 778 949 l 1151 949 l 1200 814 l 759 814 l 720 543 l 991 543 l 1137 373 l 1109 170 l 916 0 l 644 0 m 347 543 l 585 543 l 623 814 l 386 814 l 309 746 l 289 610 l 347 543 m 701 407 l 663 136 l 901 136 l 978 203 l 997 339 l 939 407 l 701 407 z "},"%":{"ha":1424,"x_min":149,"x_max":1409,"o":"m 371 949 l 574 949 l 720 780 l 691 576 l 498 407 l 294 407 l 149 576 l 178 780 l 371 949 m 1059 543 l 1263 543 l 1409 373 l 1380 170 l 1187 0 l 983 0 l 838 170 l 866 373 l 1059 543 m 203 0 l 1185 949 l 1354 949 l 373 0 l 203 0 m 1074 407 l 997 339 l 978 203 l 1036 136 l 1172 136 l 1249 203 l 1268 339 l 1210 407 l 1074 407 m 386 814 l 309 746 l 289 610 l 347 543 l 483 543 l 560 610 l 580 746 l 522 814 l 386 814 z "},"&":{"ha":1153,"x_min":92,"x_max":1161,"o":"m 978 203 l 1025 543 l 1161 543 l 1109 170 l 916 0 l 237 0 l 92 170 l 120 373 l 236 475 l 149 576 l 178 780 l 371 949 l 1015 949 l 1064 814 l 386 814 l 309 746 l 289 610 l 347 543 l 890 543 l 871 407 l 328 407 l 251 339 l 232 203 l 290 136 l 901 136 l 978 203 z "},"'":{"ha":271,"x_min":153,"x_max":337,"o":"m 337 949 l 294 644 l 153 610 l 201 949 l 337 949 z "},"(":{"ha":610,"x_min":92,"x_max":657,"o":"m 232 203 l 290 136 l 562 136 l 475 0 l 237 0 l 92 170 l 178 780 l 371 949 l 608 949 l 657 814 l 386 814 l 309 746 l 232 203 z "},")":{"ha":610,"x_min":87,"x_max":652,"o":"m 512 746 l 454 814 l 182 814 l 269 949 l 507 949 l 652 780 l 566 170 l 373 0 l 136 0 l 87 136 l 358 136 l 435 203 l 512 746 z "},"*":{"ha":585,"x_min":155,"x_max":631,"o":"m 631 804 l 483 712 l 605 621 l 536 536 l 430 616 l 410 475 l 308 475 l 328 616 l 200 536 l 155 621 l 302 712 l 181 804 l 250 888 l 355 808 l 375 949 l 477 949 l 456 808 l 585 888 l 631 804 z "},"+":{"ha":746,"x_min":125,"x_max":754,"o":"m 551 780 l 517 543 l 754 543 l 735 407 l 498 407 l 465 170 l 329 170 l 362 407 l 125 407 l 144 543 l 381 543 l 415 780 l 551 780 z "},",":{"ha":271,"x_min":39,"x_max":222,"o":"m 222 136 l 180 -170 l 39 -203 l 87 136 l 222 136 z "},"-":{"ha":746,"x_min":125,"x_max":754,"o":"m 144 543 l 754 543 l 735 407 l 125 407 l 144 543 z "},".":{"ha":271,"x_min":68,"x_max":222,"o":"m 222 136 l 203 0 l 68 0 l 87 136 l 222 136 z "},"/":{"ha":610,"x_min":68,"x_max":676,"o":"m 676 949 l 217 0 l 68 0 l 527 949 l 676 949 z "},":":{"ha":271,"x_min":68,"x_max":309,"o":"m 222 136 l 203 0 l 68 0 l 87 136 l 222 136 m 309 746 l 289 610 l 153 610 l 173 746 l 309 746 z "},";":{"ha":271,"x_min":39,"x_max":309,"o":"m 222 136 l 180 -170 l 39 -203 l 87 136 l 222 136 m 309 746 l 289 610 l 153 610 l 173 746 l 309 746 z "},"<":{"ha":746,"x_min":125,"x_max":793,"o":"m 793 814 l 770 658 l 290 475 l 719 292 l 697 136 l 125 407 l 144 543 l 793 814 z "},"=":{"ha":746,"x_min":96,"x_max":783,"o":"m 173 746 l 783 746 l 764 610 l 153 610 l 173 746 m 115 339 l 726 339 l 707 203 l 96 203 l 115 339 z "},">":{"ha":746,"x_min":87,"x_max":754,"o":"m 754 543 l 735 407 l 87 136 l 109 292 l 589 475 l 160 658 l 182 814 l 754 543 z "},"?":{"ha":1153,"x_min":182,"x_max":1195,"o":"m 309 271 l 323 373 l 517 543 l 958 543 l 1035 610 l 1055 746 l 996 814 l 182 814 l 269 949 l 1049 949 l 1195 780 l 1166 576 l 972 407 l 532 407 l 454 339 l 445 271 l 309 271 m 426 136 l 407 0 l 271 0 l 290 136 l 426 136 z "},"@":{"ha":1154,"x_min":92,"x_max":1195,"o":"m 1105 136 l 1017 0 l 237 0 l 92 170 l 178 780 l 371 949 l 1049 949 l 1195 780 l 1142 407 l 949 237 l 732 237 l 783 597 l 579 597 l 532 556 l 509 387 l 538 353 l 680 353 l 664 237 l 474 237 l 387 339 l 425 610 l 541 712 l 914 712 l 864 359 l 932 359 l 1010 427 l 1055 746 l 996 814 l 386 814 l 309 746 l 232 203 l 290 136 l 1105 136 z "},"A":{"ha":1153,"x_min":68,"x_max":1190,"o":"m 173 746 l 676 949 l 744 949 l 1190 746 l 1085 0 l 949 0 l 997 339 l 319 339 l 338 475 l 1016 475 l 1043 665 l 723 800 l 655 800 l 297 665 l 203 0 l 68 0 l 173 746 z "},"B":{"ha":1153,"x_min":68,"x_max":1175,"o":"m 68 0 l 201 949 l 1029 949 l 1175 780 l 1145 576 l 1041 485 l 1137 373 l 1109 170 l 916 0 l 68 0 m 318 814 l 222 136 l 901 136 l 978 203 l 997 339 l 939 407 l 328 407 l 347 543 l 937 543 l 1015 610 l 1034 746 l 976 814 l 318 814 z "},"C":{"ha":1153,"x_min":92,"x_max":1200,"o":"m 232 203 l 290 136 l 1104 136 l 1017 0 l 237 0 l 92 170 l 178 780 l 371 949 l 1151 949 l 1200 814 l 386 814 l 309 746 l 232 203 z "},"D":{"ha":1153,"x_min":68,"x_max":1195,"o":"m 201 949 l 1049 949 l 1195 780 l 1109 170 l 916 0 l 68 0 l 201 949 m 318 814 l 222 136 l 901 136 l 978 203 l 1055 746 l 996 814 l 318 814 z "},"E":{"ha":1153,"x_min":92,"x_max":1200,"o":"m 1161 543 l 1142 407 l 260 407 l 232 203 l 290 136 l 1104 136 l 1017 0 l 237 0 l 92 170 l 178 780 l 371 949 l 1151 949 l 1200 814 l 386 814 l 309 746 l 279 543 l 1161 543 z "},"F":{"ha":1153,"x_min":68,"x_max":1200,"o":"m 1161 543 l 1142 407 l 260 407 l 203 0 l 68 0 l 178 780 l 371 949 l 1151 949 l 1200 814 l 386 814 l 309 746 l 279 543 l 1161 543 z "},"G":{"ha":1153,"x_min":92,"x_max":1200,"o":"m 1006 407 l 600 407 l 618 543 l 1162 543 l 1109 170 l 916 0 l 237 0 l 92 170 l 178 780 l 371 949 l 1151 949 l 1200 814 l 386 814 l 309 746 l 232 203 l 290 136 l 901 136 l 978 203 l 1006 407 z "},"H":{"ha":1153,"x_min":68,"x_max":1219,"o":"m 201 949 l 337 949 l 279 543 l 1025 543 l 1083 949 l 1219 949 l 1085 0 l 949 0 l 1006 407 l 260 407 l 203 0 l 68 0 l 201 949 z "},"I":{"ha":271,"x_min":68,"x_max":337,"o":"m 337 949 l 203 0 l 68 0 l 201 949 l 337 949 z "},"J":{"ha":1153,"x_min":87,"x_max":1219,"o":"m 1083 949 l 1219 949 l 1109 170 l 916 0 l 136 0 l 87 136 l 901 136 l 978 203 l 1083 949 z "},"K":{"ha":1153,"x_min":68,"x_max":1219,"o":"m 337 949 l 279 543 l 754 543 l 1069 949 l 1219 949 l 903 543 l 991 543 l 1137 373 l 1085 0 l 949 0 l 997 339 l 939 407 l 260 407 l 203 0 l 68 0 l 201 949 l 337 949 z "},"L":{"ha":1153,"x_min":92,"x_max":1104,"o":"m 232 203 l 290 136 l 1104 136 l 1017 0 l 237 0 l 92 170 l 201 949 l 337 949 l 232 203 z "},"M":{"ha":1289,"x_min":68,"x_max":1331,"o":"m 712 0 l 576 0 l 691 814 l 386 814 l 309 746 l 203 0 l 68 0 l 178 780 l 371 949 l 1185 949 l 1331 780 l 1221 0 l 1085 0 l 1190 746 l 1132 814 l 827 814 l 712 0 z "},"N":{"ha":1153,"x_min":68,"x_max":1195,"o":"m 386 814 l 309 746 l 203 0 l 68 0 l 178 780 l 371 949 l 1049 949 l 1195 780 l 1085 0 l 949 0 l 1055 746 l 996 814 l 386 814 z "},"O":{"ha":1153,"x_min":92,"x_max":1195,"o":"m 178 780 l 371 949 l 1049 949 l 1195 780 l 1109 170 l 916 0 l 237 0 l 92 170 l 178 780 m 386 814 l 309 746 l 232 203 l 290 136 l 901 136 l 978 203 l 1055 746 l 996 814 l 386 814 z "},"P":{"ha":1153,"x_min":68,"x_max":1195,"o":"m 1049 949 l 1195 780 l 1156 509 l 963 339 l 319 339 l 338 475 l 948 475 l 1025 543 l 1055 746 l 996 814 l 318 814 l 203 0 l 68 0 l 201 949 l 1049 949 z "},"Q":{"ha":1153,"x_min":92,"x_max":1195,"o":"m 178 780 l 371 949 l 1049 949 l 1195 780 l 1109 170 l 941 22 l 998 -136 l 863 -136 l 814 0 l 237 0 l 92 170 l 178 780 m 386 814 l 309 746 l 232 203 l 290 136 l 765 136 l 716 271 l 852 271 l 901 136 l 978 203 l 1055 746 l 996 814 l 386 814 z "},"R":{"ha":1153,"x_min":68,"x_max":1195,"o":"m 1049 949 l 1195 780 l 1156 509 l 1040 407 l 1128 305 l 1085 0 l 949 0 l 987 271 l 929 339 l 319 339 l 338 475 l 948 475 l 1025 543 l 1055 746 l 996 814 l 318 814 l 203 0 l 68 0 l 201 949 l 1049 949 z "},"S":{"ha":1153,"x_min":87,"x_max":1200,"o":"m 136 0 l 87 136 l 901 136 l 978 203 l 997 339 l 939 407 l 294 407 l 149 576 l 178 780 l 371 949 l 1151 949 l 1200 814 l 386 814 l 309 746 l 289 610 l 347 543 l 991 543 l 1137 373 l 1109 170 l 916 0 l 136 0 z "},"T":{"ha":1153,"x_min":182,"x_max":1219,"o":"m 1219 949 l 1200 814 l 759 814 l 644 0 l 509 0 l 623 814 l 182 814 l 201 949 l 1219 949 z "},"U":{"ha":1153,"x_min":92,"x_max":1219,"o":"m 901 136 l 978 203 l 1083 949 l 1219 949 l 1109 170 l 916 0 l 237 0 l 92 170 l 201 949 l 337 949 l 232 203 l 290 136 l 901 136 z "},"V":{"ha":1153,"x_min":96,"x_max":1219,"o":"m 201 949 l 337 949 l 243 285 l 564 149 l 631 149 l 989 285 l 1083 949 l 1219 949 l 1114 203 l 610 0 l 543 0 l 96 203 l 201 949 z "},"W":{"ha":1289,"x_min":92,"x_max":1354,"o":"m 710 949 l 846 949 l 731 136 l 1036 136 l 1114 203 l 1219 949 l 1354 949 l 1244 170 l 1051 0 l 237 0 l 92 170 l 201 949 l 337 949 l 232 203 l 290 136 l 595 136 l 710 949 z "},"X":{"ha":1153,"x_min":68,"x_max":1219,"o":"m 68 0 l 558 475 l 201 949 l 371 949 l 656 570 l 1049 949 l 1219 949 l 728 475 l 1085 0 l 916 0 l 630 380 l 237 0 l 68 0 z "},"Y":{"ha":1153,"x_min":144,"x_max":1219,"o":"m 201 949 l 337 949 l 291 624 l 611 488 l 679 488 l 1037 624 l 1083 949 l 1219 949 l 1161 543 l 694 353 l 644 0 l 509 0 l 558 353 l 144 543 l 201 949 z "},"Z":{"ha":1153,"x_min":68,"x_max":1219,"o":"m 68 0 l 87 136 l 996 814 l 182 814 l 201 949 l 1219 949 l 1200 814 l 290 136 l 1104 136 l 1085 0 l 68 0 z "},"[":{"ha":610,"x_min":68,"x_max":657,"o":"m 222 136 l 562 136 l 475 0 l 68 0 l 201 949 l 608 949 l 657 814 l 318 814 l 222 136 z "},"\\":{"ha":610,"x_min":201,"x_max":543,"o":"m 351 949 l 543 0 l 393 0 l 201 949 l 351 949 z "},"]":{"ha":610,"x_min":87,"x_max":676,"o":"m 522 814 l 182 814 l 269 949 l 676 949 l 543 0 l 136 0 l 87 136 l 426 136 l 522 814 z "},"^":{"ha":746,"x_min":144,"x_max":754,"o":"m 561 949 l 754 543 l 598 543 l 488 814 l 300 543 l 144 543 l 452 949 l 561 949 z "},"_":{"ha":610,"x_min":-38,"x_max":591,"o":"m -19 -136 l 591 -136 l 572 -271 l -38 -271 l -19 -136 z "},"`":{"ha":407,"x_min":216,"x_max":458,"o":"m 358 1051 l 458 848 l 316 848 l 216 1051 l 358 1051 z "},"a":{"ha":1017,"x_min":92,"x_max":1030,"o":"m 92 170 l 106 271 l 299 441 l 808 441 l 789 305 l 314 305 l 237 237 l 232 203 l 290 136 l 765 136 l 842 203 l 890 543 l 831 610 l 221 610 l 309 746 l 885 746 l 1030 576 l 973 170 l 780 0 l 237 0 l 92 170 z "},"b":{"ha":1017,"x_min":92,"x_max":1030,"o":"m 842 203 l 890 543 l 831 610 l 357 610 l 376 746 l 885 746 l 1030 576 l 973 170 l 780 0 l 237 0 l 92 170 l 201 949 l 337 949 l 232 203 l 290 136 l 765 136 l 842 203 z "},"c":{"ha":1017,"x_min":92,"x_max":1035,"o":"m 1035 610 l 357 610 l 279 543 l 232 203 l 290 136 l 968 136 l 882 0 l 237 0 l 92 170 l 149 576 l 342 746 l 987 746 l 1035 610 z "},"d":{"ha":1017,"x_min":92,"x_max":1083,"o":"m 92 170 l 149 576 l 342 746 l 851 746 l 831 610 l 357 610 l 279 543 l 232 203 l 290 136 l 765 136 l 842 203 l 947 949 l 1083 949 l 973 170 l 780 0 l 237 0 l 92 170 z "},"e":{"ha":1017,"x_min":92,"x_max":1030,"o":"m 149 576 l 342 746 l 885 746 l 1030 576 l 1016 475 l 823 305 l 314 305 l 333 441 l 808 441 l 885 509 l 890 543 l 831 610 l 357 610 l 279 543 l 232 203 l 290 136 l 901 136 l 814 0 l 237 0 l 92 170 l 149 576 z "},"f":{"ha":814,"x_min":144,"x_max":861,"o":"m 415 543 l 339 0 l 203 0 l 279 543 l 144 543 l 163 678 l 299 678 l 313 780 l 507 949 l 812 949 l 861 814 l 522 814 l 444 746 l 435 678 l 842 678 l 822 543 l 415 543 z "},"g":{"ha":1017,"x_min":134,"x_max":1030,"o":"m 279 543 l 275 509 l 333 441 l 808 441 l 789 305 l 280 305 l 134 475 l 149 576 l 342 746 l 885 746 l 1030 576 l 973 170 l 780 0 l 203 0 l 155 136 l 765 136 l 842 203 l 890 543 l 831 610 l 357 610 l 279 543 z "},"h":{"ha":1017,"x_min":68,"x_max":1030,"o":"m 337 949 l 309 746 l 885 746 l 1030 576 l 949 0 l 814 0 l 890 543 l 831 610 l 289 610 l 203 0 l 68 0 l 201 949 l 337 949 z "},"i":{"ha":271,"x_min":68,"x_max":337,"o":"m 299 678 l 203 0 l 68 0 l 163 678 l 299 678 m 337 949 l 318 814 l 182 814 l 201 949 l 337 949 z "},"j":{"ha":814,"x_min":87,"x_max":880,"o":"m 87 136 l 562 136 l 639 203 l 706 678 l 842 678 l 770 170 l 576 0 l 136 0 l 87 136 m 880 949 l 861 814 l 725 814 l 744 949 l 880 949 z "},"k":{"ha":1017,"x_min":68,"x_max":1055,"o":"m 337 949 l 270 475 l 677 475 l 905 746 l 1055 746 l 826 475 l 846 475 l 992 305 l 949 0 l 814 0 l 852 271 l 793 339 l 251 339 l 203 0 l 68 0 l 201 949 l 337 949 z "},"l":{"ha":271,"x_min":68,"x_max":337,"o":"m 337 949 l 203 0 l 68 0 l 201 949 l 337 949 z "},"m":{"ha":1153,"x_min":68,"x_max":1166,"o":"m 1166 576 l 1085 0 l 949 0 l 1025 543 l 967 610 l 730 610 l 644 0 l 509 0 l 594 610 l 357 610 l 279 543 l 203 0 l 68 0 l 149 576 l 342 746 l 1021 746 l 1166 576 z "},"n":{"ha":1017,"x_min":68,"x_max":1030,"o":"m 279 543 l 203 0 l 68 0 l 149 576 l 342 746 l 885 746 l 1030 576 l 949 0 l 814 0 l 890 543 l 831 610 l 357 610 l 279 543 z "},"o":{"ha":1017,"x_min":92,"x_max":1030,"o":"m 1030 576 l 973 170 l 780 0 l 237 0 l 92 170 l 149 576 l 342 746 l 885 746 l 1030 576 m 279 543 l 232 203 l 290 136 l 765 136 l 842 203 l 890 543 l 831 610 l 357 610 l 279 543 z "},"p":{"ha":1017,"x_min":68,"x_max":1030,"o":"m 1030 576 l 1002 373 l 808 203 l 300 203 l 319 339 l 793 339 l 871 407 l 890 543 l 831 610 l 357 610 l 279 543 l 203 0 l 68 0 l 149 576 l 342 746 l 885 746 l 1030 576 z "},"q":{"ha":1017,"x_min":120,"x_max":1030,"o":"m 279 543 l 260 407 l 319 339 l 793 339 l 774 203 l 266 203 l 120 373 l 149 576 l 342 746 l 885 746 l 1030 576 l 949 0 l 814 0 l 890 543 l 831 610 l 357 610 l 279 543 z "},"r":{"ha":814,"x_min":68,"x_max":831,"o":"m 831 610 l 357 610 l 279 543 l 203 0 l 68 0 l 149 576 l 342 746 l 783 746 l 831 610 z "},"s":{"ha":1017,"x_min":87,"x_max":1035,"o":"m 842 441 l 987 271 l 973 170 l 780 0 l 136 0 l 87 136 l 765 136 l 842 203 l 847 237 l 789 305 l 280 305 l 134 475 l 149 576 l 342 746 l 987 746 l 1035 610 l 357 610 l 279 543 l 275 509 l 333 441 l 842 441 z "},"t":{"ha":814,"x_min":153,"x_max":851,"o":"m 309 746 l 328 882 l 473 949 l 444 746 l 851 746 l 831 610 l 425 610 l 368 203 l 426 136 l 765 136 l 678 0 l 373 0 l 227 170 l 289 610 l 153 610 l 173 746 l 309 746 z "},"u":{"ha":1017,"x_min":92,"x_max":1055,"o":"m 92 170 l 173 746 l 309 746 l 232 203 l 290 136 l 765 136 l 842 203 l 919 746 l 1055 746 l 973 170 l 780 0 l 237 0 l 92 170 z "},"v":{"ha":1017,"x_min":96,"x_max":1055,"o":"m 173 746 l 309 746 l 243 285 l 496 149 l 564 149 l 854 285 l 919 746 l 1055 746 l 978 203 l 543 0 l 475 0 l 96 203 l 173 746 z "},"w":{"ha":1153,"x_min":92,"x_max":1190,"o":"m 92 170 l 173 746 l 309 746 l 232 203 l 290 136 l 528 136 l 614 746 l 749 746 l 663 136 l 901 136 l 978 203 l 1055 746 l 1190 746 l 1109 170 l 916 0 l 237 0 l 92 170 z "},"x":{"ha":1017,"x_min":68,"x_max":1055,"o":"m 68 0 l 476 373 l 173 746 l 342 746 l 574 462 l 885 746 l 1055 746 l 646 373 l 949 0 l 780 0 l 549 284 l 237 0 l 68 0 z "},"y":{"ha":1017,"x_min":134,"x_max":1055,"o":"m 973 170 l 780 0 l 203 0 l 155 136 l 765 136 l 842 203 l 857 305 l 280 305 l 134 475 l 173 746 l 309 746 l 275 509 l 333 441 l 876 441 l 919 746 l 1055 746 l 973 170 z "},"z":{"ha":1017,"x_min":68,"x_max":1055,"o":"m 68 0 l 87 136 l 811 610 l 153 610 l 173 746 l 1055 746 l 1035 610 l 311 136 l 968 136 l 949 0 l 68 0 z "},"{":{"ha":949,"x_min":125,"x_max":996,"o":"m 710 949 l 947 949 l 996 814 l 725 814 l 648 746 l 623 576 l 507 475 l 595 373 l 571 203 l 629 136 l 901 136 l 814 0 l 576 0 l 431 170 l 454 339 l 396 407 l 125 407 l 144 543 l 415 543 l 492 610 l 517 780 l 710 949 z "},"|":{"ha":271,"x_min":68,"x_max":337,"o":"m 337 949 l 203 0 l 68 0 l 201 949 l 337 949 z "},"}":{"ha":949,"x_min":87,"x_max":958,"o":"m 373 0 l 136 0 l 87 136 l 358 136 l 435 203 l 459 373 l 575 475 l 488 576 l 512 746 l 454 814 l 182 814 l 269 949 l 507 949 l 652 780 l 628 610 l 686 543 l 958 543 l 939 407 l 667 407 l 590 339 l 566 170 l 373 0 z "},"~":{"ha":882,"x_min":115,"x_max":899,"o":"m 130 441 l 323 610 l 472 610 l 589 475 l 677 475 l 754 543 l 764 610 l 899 610 l 885 509 l 692 339 l 536 339 l 419 475 l 338 475 l 260 407 l 251 339 l 115 339 l 130 441 z "}," ":{"ha":543,"x_min":0,"x_max":0,"o":""},"¡":{"ha":271,"x_min":39,"x_max":309,"o":"m 309 746 l 289 610 l 153 610 l 173 746 l 309 746 m 270 475 l 175 -203 l 39 -203 l 134 475 l 270 475 z "},"¢":{"ha":1017,"x_min":120,"x_max":1064,"o":"m 1064 814 l 759 814 l 692 339 l 997 339 l 910 203 l 673 203 l 654 68 l 518 68 l 537 203 l 266 203 l 120 373 l 178 780 l 371 949 l 642 949 l 661 1085 l 797 1085 l 778 949 l 1015 949 l 1064 814 m 319 339 l 556 339 l 623 814 l 386 814 l 309 746 l 260 407 l 319 339 z "},"£":{"ha":1153,"x_min":68,"x_max":1123,"o":"m 87 136 l 222 136 l 260 407 l 125 407 l 144 543 l 279 543 l 313 780 l 507 949 l 1015 949 l 1064 814 l 522 814 l 444 746 l 415 543 l 890 543 l 871 407 l 396 407 l 358 136 l 901 136 l 978 203 l 987 271 l 1123 271 l 1109 170 l 916 0 l 68 0 l 87 136 z "},"¥":{"ha":1153,"x_min":144,"x_max":1219,"o":"m 677 237 l 668 170 l 973 170 l 959 68 l 654 68 l 644 0 l 509 0 l 518 68 l 213 68 l 227 170 l 532 170 l 542 237 l 237 237 l 251 339 l 556 339 l 558 353 l 144 543 l 201 949 l 337 949 l 291 624 l 611 488 l 679 488 l 1037 624 l 1083 949 l 1219 949 l 1161 543 l 694 353 l 692 339 l 997 339 l 983 237 l 677 237 z "},"¦":{"ha":271,"x_min":68,"x_max":337,"o":"m 337 949 l 279 543 l 144 543 l 201 949 l 337 949 m 260 407 l 203 0 l 68 0 l 125 407 l 260 407 z "},"¨":{"ha":543,"x_min":187,"x_max":613,"o":"m 342 983 l 323 848 l 187 848 l 206 983 l 342 983 m 613 983 l 594 848 l 458 848 l 477 983 l 613 983 z "},"©":{"ha":1153,"x_min":92,"x_max":1195,"o":"m 178 780 l 371 949 l 1049 949 l 1195 780 l 1109 170 l 916 0 l 237 0 l 92 170 l 178 780 m 386 814 l 309 746 l 232 203 l 290 136 l 901 136 l 978 203 l 1055 746 l 996 814 l 386 814 m 898 597 l 579 597 l 532 556 l 509 387 l 538 353 l 863 353 l 779 237 l 474 237 l 387 339 l 425 610 l 541 712 l 846 712 l 898 597 z "},"«":{"ha":746,"x_min":125,"x_max":793,"o":"m 454 814 l 430 644 l 236 475 l 382 305 l 358 136 l 125 407 l 144 543 l 454 814 m 793 814 l 769 644 l 575 475 l 721 305 l 697 136 l 464 407 l 483 543 l 793 814 z "},"¬":{"ha":746,"x_min":125,"x_max":754,"o":"m 144 543 l 754 543 l 702 170 l 566 170 l 600 407 l 125 407 l 144 543 z "},"®":{"ha":1153,"x_min":92,"x_max":1195,"o":"m 178 780 l 371 949 l 1049 949 l 1195 780 l 1109 170 l 916 0 l 237 0 l 92 170 l 178 780 m 386 814 l 309 746 l 232 203 l 290 136 l 901 136 l 978 203 l 1055 746 l 996 814 l 386 814 m 812 712 l 899 610 l 882 481 l 820 427 l 866 373 l 846 231 l 731 231 l 745 332 l 710 373 l 507 373 l 488 237 l 372 237 l 439 712 l 812 712 m 538 597 l 523 488 l 733 488 l 772 522 l 777 556 l 742 597 l 538 597 z "},"°":{"ha":678,"x_min":149,"x_max":720,"o":"m 720 780 l 691 576 l 498 407 l 294 407 l 149 576 l 178 780 l 371 949 l 574 949 l 720 780 m 309 746 l 289 610 l 347 543 l 483 543 l 560 610 l 580 746 l 522 814 l 386 814 l 309 746 z "},"±":{"ha":746,"x_min":68,"x_max":759,"o":"m 555 814 l 522 576 l 759 576 l 740 441 l 503 441 l 469 203 l 334 203 l 367 441 l 130 441 l 149 576 l 386 576 l 420 814 l 555 814 m 87 136 l 697 136 l 678 0 l 68 0 l 87 136 z "},"´":{"ha":407,"x_min":187,"x_max":487,"o":"m 487 1051 l 330 848 l 187 848 l 345 1051 l 487 1051 z "},"µ":{"ha":1017,"x_min":68,"x_max":1055,"o":"m 173 746 l 309 746 l 246 305 l 789 305 l 866 373 l 919 746 l 1055 746 l 997 339 l 804 170 l 227 170 l 203 0 l 68 0 l 173 746 z "},"¶":{"ha":1153,"x_min":139,"x_max":1219,"o":"m 1219 949 l 1085 0 l 949 0 l 1064 814 l 861 814 l 746 0 l 610 0 l 658 339 l 285 339 l 139 509 l 178 780 l 371 949 l 1219 949 z "},"·":{"ha":271,"x_min":125,"x_max":279,"o":"m 125 407 l 144 543 l 279 543 l 260 407 l 125 407 z "},"¸":{"ha":407,"x_min":25,"x_max":325,"o":"m 25 -305 l 182 -102 l 325 -102 l 168 -305 l 25 -305 z "},"»":{"ha":746,"x_min":87,"x_max":754,"o":"m 754 543 l 735 407 l 426 136 l 450 305 l 643 475 l 498 644 l 522 814 l 754 543 m 415 543 l 396 407 l 87 136 l 111 305 l 304 475 l 159 644 l 182 814 l 415 543 z "},"¿":{"ha":1153,"x_min":63,"x_max":1076,"o":"m 948 475 l 934 373 l 741 203 l 300 203 l 222 136 l 203 0 l 262 -68 l 1076 -68 l 989 -203 l 209 -203 l 63 -34 l 92 170 l 285 339 l 726 339 l 803 407 l 812 475 l 948 475 m 831 610 l 851 746 l 987 746 l 967 610 l 831 610 z "},"À":{"ha":1153,"x_min":68,"x_max":1190,"o":"m 173 746 l 676 949 l 744 949 l 1190 746 l 1085 0 l 949 0 l 997 339 l 319 339 l 338 475 l 1016 475 l 1043 665 l 723 800 l 655 800 l 297 665 l 203 0 l 68 0 l 173 746 m 714 1255 l 814 1051 l 672 1051 l 572 1255 l 714 1255 z "},"Á":{"ha":1153,"x_min":68,"x_max":1190,"o":"m 173 746 l 676 949 l 744 949 l 1190 746 l 1085 0 l 949 0 l 997 339 l 319 339 l 338 475 l 1016 475 l 1043 665 l 723 800 l 655 800 l 297 665 l 203 0 l 68 0 l 173 746 m 934 1255 l 777 1051 l 634 1051 l 791 1255 l 934 1255 z "},"Â":{"ha":1153,"x_min":68,"x_max":1190,"o":"m 173 746 l 676 949 l 744 949 l 1190 746 l 1085 0 l 949 0 l 997 339 l 319 339 l 338 475 l 1016 475 l 1043 665 l 723 800 l 655 800 l 297 665 l 203 0 l 68 0 l 173 746 m 841 1255 l 962 1051 l 806 1051 l 743 1187 l 643 1051 l 487 1051 l 665 1255 l 841 1255 z "},"Ã":{"ha":1153,"x_min":68,"x_max":1190,"o":"m 173 746 l 676 949 l 744 949 l 1190 746 l 1085 0 l 949 0 l 997 339 l 319 339 l 338 475 l 1016 475 l 1043 665 l 723 800 l 655 800 l 297 665 l 203 0 l 68 0 l 173 746 m 410 1153 l 564 1289 l 713 1289 l 819 1166 l 900 1166 l 962 1221 l 971 1289 l 1086 1289 l 1072 1187 l 918 1051 l 770 1051 l 768 1048 l 663 1173 l 582 1173 l 520 1119 l 511 1051 l 395 1051 l 410 1153 z "},"Ä":{"ha":1153,"x_min":68,"x_max":1190,"o":"m 173 746 l 676 949 l 744 949 l 1190 746 l 1085 0 l 949 0 l 997 339 l 319 339 l 338 475 l 1016 475 l 1043 665 l 723 800 l 655 800 l 297 665 l 203 0 l 68 0 l 173 746 m 675 1187 l 656 1051 l 521 1051 l 540 1187 l 675 1187 m 947 1187 l 928 1051 l 792 1051 l 811 1187 l 947 1187 z "},"Å":{"ha":1153,"x_min":68,"x_max":1190,"o":"m 173 746 l 676 949 l 744 949 l 1190 746 l 1085 0 l 949 0 l 997 339 l 319 339 l 338 475 l 1016 475 l 1043 665 l 723 800 l 655 800 l 297 665 l 203 0 l 68 0 l 173 746 m 857 1390 l 944 1289 l 925 1153 l 809 1051 l 640 1051 l 552 1153 l 571 1289 l 687 1390 l 857 1390 m 668 1255 l 659 1187 l 688 1153 l 789 1153 l 828 1187 l 838 1255 l 808 1289 l 707 1289 l 668 1255 z "},"Æ":{"ha":2035,"x_min":68,"x_max":2081,"o":"m 173 746 l 676 949 l 744 949 l 1078 797 l 1253 949 l 2032 949 l 2081 814 l 1267 814 l 1190 746 l 1161 543 l 2043 543 l 2024 407 l 1142 407 l 1114 203 l 1172 136 l 1986 136 l 1899 0 l 1119 0 l 973 170 l 997 339 l 319 339 l 338 475 l 1016 475 l 1043 665 l 723 800 l 655 800 l 297 665 l 203 0 l 68 0 l 173 746 z "},"Ç":{"ha":1153,"x_min":92,"x_max":1200,"o":"m 232 203 l 290 136 l 1104 136 l 1017 0 l 237 0 l 92 170 l 178 780 l 371 949 l 1151 949 l 1200 814 l 386 814 l 309 746 l 232 203 m 398 -305 l 555 -102 l 698 -102 l 541 -305 l 398 -305 z "},"È":{"ha":1153,"x_min":92,"x_max":1200,"o":"m 1161 543 l 1142 407 l 260 407 l 232 203 l 290 136 l 1104 136 l 1017 0 l 237 0 l 92 170 l 178 780 l 371 949 l 1151 949 l 1200 814 l 386 814 l 309 746 l 279 543 l 1161 543 m 714 1255 l 814 1051 l 672 1051 l 572 1255 l 714 1255 z "},"É":{"ha":1153,"x_min":92,"x_max":1200,"o":"m 1161 543 l 1142 407 l 260 407 l 232 203 l 290 136 l 1104 136 l 1017 0 l 237 0 l 92 170 l 178 780 l 371 949 l 1151 949 l 1200 814 l 386 814 l 309 746 l 279 543 l 1161 543 m 934 1255 l 777 1051 l 634 1051 l 791 1255 l 934 1255 z "},"Ê":{"ha":1153,"x_min":92,"x_max":1200,"o":"m 1161 543 l 1142 407 l 260 407 l 232 203 l 290 136 l 1104 136 l 1017 0 l 237 0 l 92 170 l 178 780 l 371 949 l 1151 949 l 1200 814 l 386 814 l 309 746 l 279 543 l 1161 543 m 841 1255 l 962 1051 l 806 1051 l 743 1187 l 643 1051 l 487 1051 l 665 1255 l 841 1255 z "},"Ë":{"ha":1153,"x_min":92,"x_max":1200,"o":"m 1161 543 l 1142 407 l 260 407 l 232 203 l 290 136 l 1104 136 l 1017 0 l 237 0 l 92 170 l 178 780 l 371 949 l 1151 949 l 1200 814 l 386 814 l 309 746 l 279 543 l 1161 543 m 675 1187 l 656 1051 l 521 1051 l 540 1187 l 675 1187 m 947 1187 l 928 1051 l 792 1051 l 811 1187 l 947 1187 z "},"Ì":{"ha":407,"x_min":181,"x_max":487,"o":"m 450 949 l 317 0 l 181 0 l 315 949 l 450 949 m 387 1255 l 487 1051 l 345 1051 l 244 1255 l 387 1255 z "},"Í":{"ha":407,"x_min":90,"x_max":515,"o":"m 359 949 l 226 0 l 90 0 l 224 949 l 359 949 m 515 1255 l 358 1051 l 216 1051 l 373 1255 l 515 1255 z "},"Î":{"ha":610,"x_min":216,"x_max":690,"o":"m 507 949 l 373 0 l 237 0 l 371 949 l 507 949 m 570 1255 l 690 1051 l 534 1051 l 472 1187 l 372 1051 l 216 1051 l 393 1255 l 570 1255 z "},"Ï":{"ha":543,"x_min":203,"x_max":642,"o":"m 473 949 l 339 0 l 203 0 l 337 949 l 473 949 m 370 1187 l 351 1051 l 216 1051 l 235 1187 l 370 1187 m 642 1187 l 623 1051 l 487 1051 l 506 1187 l 642 1187 z "},"Ð":{"ha":1289,"x_min":125,"x_max":1331,"o":"m 203 0 l 260 407 l 125 407 l 144 543 l 279 543 l 337 949 l 1185 949 l 1331 780 l 1244 170 l 1051 0 l 203 0 m 1036 136 l 1114 203 l 1190 746 l 1132 814 l 454 814 l 415 543 l 822 543 l 803 407 l 396 407 l 358 136 l 1036 136 z "},"Ñ":{"ha":1153,"x_min":68,"x_max":1195,"o":"m 386 814 l 309 746 l 203 0 l 68 0 l 178 780 l 371 949 l 1049 949 l 1195 780 l 1085 0 l 949 0 l 1055 746 l 996 814 l 386 814 m 410 1153 l 564 1289 l 713 1289 l 819 1166 l 900 1166 l 962 1221 l 971 1289 l 1086 1289 l 1072 1187 l 918 1051 l 770 1051 l 768 1048 l 663 1173 l 582 1173 l 520 1119 l 511 1051 l 395 1051 l 410 1153 z "},"Ò":{"ha":1153,"x_min":92,"x_max":1195,"o":"m 178 780 l 371 949 l 1049 949 l 1195 780 l 1109 170 l 916 0 l 237 0 l 92 170 l 178 780 m 386 814 l 309 746 l 232 203 l 290 136 l 901 136 l 978 203 l 1055 746 l 996 814 l 386 814 m 714 1255 l 814 1051 l 672 1051 l 572 1255 l 714 1255 z "},"Ó":{"ha":1153,"x_min":92,"x_max":1195,"o":"m 178 780 l 371 949 l 1049 949 l 1195 780 l 1109 170 l 916 0 l 237 0 l 92 170 l 178 780 m 386 814 l 309 746 l 232 203 l 290 136 l 901 136 l 978 203 l 1055 746 l 996 814 l 386 814 m 934 1255 l 777 1051 l 634 1051 l 791 1255 l 934 1255 z "},"Ô":{"ha":1153,"x_min":92,"x_max":1195,"o":"m 178 780 l 371 949 l 1049 949 l 1195 780 l 1109 170 l 916 0 l 237 0 l 92 170 l 178 780 m 386 814 l 309 746 l 232 203 l 290 136 l 901 136 l 978 203 l 1055 746 l 996 814 l 386 814 m 841 1255 l 962 1051 l 806 1051 l 743 1187 l 643 1051 l 487 1051 l 665 1255 l 841 1255 z "},"Õ":{"ha":1153,"x_min":92,"x_max":1195,"o":"m 178 780 l 371 949 l 1049 949 l 1195 780 l 1109 170 l 916 0 l 237 0 l 92 170 l 178 780 m 386 814 l 309 746 l 232 203 l 290 136 l 901 136 l 978 203 l 1055 746 l 996 814 l 386 814 m 410 1153 l 564 1289 l 713 1289 l 819 1166 l 900 1166 l 962 1221 l 971 1289 l 1086 1289 l 1072 1187 l 918 1051 l 770 1051 l 768 1048 l 663 1173 l 582 1173 l 520 1119 l 511 1051 l 395 1051 l 410 1153 z "},"Ö":{"ha":1153,"x_min":92,"x_max":1195,"o":"m 178 780 l 371 949 l 1049 949 l 1195 780 l 1109 170 l 916 0 l 237 0 l 92 170 l 178 780 m 386 814 l 309 746 l 232 203 l 290 136 l 901 136 l 978 203 l 1055 746 l 996 814 l 386 814 m 675 1187 l 656 1051 l 521 1051 l 540 1187 l 675 1187 m 947 1187 l 928 1051 l 792 1051 l 811 1187 l 947 1187 z "},"×":{"ha":650,"x_min":110,"x_max":673,"o":"m 110 300 l 309 474 l 159 648 l 254 731 l 402 556 l 602 731 l 673 649 l 473 474 l 624 299 l 530 217 l 379 391 l 180 217 l 110 300 z "},"Ø":{"ha":1153,"x_min":92,"x_max":1195,"o":"m 178 780 l 371 949 l 1049 949 l 1195 780 l 1109 170 l 916 0 l 237 0 l 92 170 l 178 780 m 1055 746 l 324 136 l 901 136 l 978 203 l 1055 746 m 232 203 l 962 814 l 386 814 l 309 746 l 232 203 z "},"Ù":{"ha":1153,"x_min":92,"x_max":1219,"o":"m 901 136 l 978 203 l 1083 949 l 1219 949 l 1109 170 l 916 0 l 237 0 l 92 170 l 201 949 l 337 949 l 232 203 l 290 136 l 901 136 m 714 1255 l 814 1051 l 672 1051 l 572 1255 l 714 1255 z "},"Ú":{"ha":1153,"x_min":92,"x_max":1219,"o":"m 901 136 l 978 203 l 1083 949 l 1219 949 l 1109 170 l 916 0 l 237 0 l 92 170 l 201 949 l 337 949 l 232 203 l 290 136 l 901 136 m 934 1255 l 777 1051 l 634 1051 l 791 1255 l 934 1255 z "},"Û":{"ha":1153,"x_min":92,"x_max":1219,"o":"m 901 136 l 978 203 l 1083 949 l 1219 949 l 1109 170 l 916 0 l 237 0 l 92 170 l 201 949 l 337 949 l 232 203 l 290 136 l 901 136 m 841 1255 l 962 1051 l 806 1051 l 743 1187 l 643 1051 l 487 1051 l 665 1255 l 841 1255 z "},"Ü":{"ha":1153,"x_min":92,"x_max":1219,"o":"m 901 136 l 978 203 l 1083 949 l 1219 949 l 1109 170 l 916 0 l 237 0 l 92 170 l 201 949 l 337 949 l 232 203 l 290 136 l 901 136 m 675 1187 l 656 1051 l 521 1051 l 540 1187 l 675 1187 m 947 1187 l 928 1051 l 792 1051 l 811 1187 l 947 1187 z "},"Ý":{"ha":1153,"x_min":144,"x_max":1219,"o":"m 201 949 l 337 949 l 291 624 l 611 488 l 679 488 l 1037 624 l 1083 949 l 1219 949 l 1161 543 l 694 353 l 644 0 l 509 0 l 558 353 l 144 543 l 201 949 m 934 1255 l 777 1051 l 634 1051 l 791 1255 l 934 1255 z "},"Þ":{"ha":1153,"x_min":68,"x_max":1171,"o":"m 337 949 l 313 780 l 1025 780 l 1171 610 l 1133 339 l 939 170 l 295 170 l 314 305 l 924 305 l 1002 373 l 1030 576 l 972 644 l 294 644 l 203 0 l 68 0 l 201 949 l 337 949 z "},"ß":{"ha":1153,"x_min":68,"x_max":1175,"o":"m 271 0 l 290 136 l 901 136 l 978 203 l 997 339 l 939 407 l 328 407 l 347 543 l 937 543 l 1015 610 l 1034 746 l 976 814 l 386 814 l 309 746 l 203 0 l 68 0 l 178 780 l 371 949 l 1029 949 l 1175 780 l 1145 576 l 1041 485 l 1137 373 l 1109 170 l 916 0 l 271 0 z "},"à":{"ha":1017,"x_min":92,"x_max":1030,"o":"m 92 170 l 106 271 l 299 441 l 808 441 l 789 305 l 314 305 l 237 237 l 232 203 l 290 136 l 765 136 l 842 203 l 890 543 l 831 610 l 221 610 l 309 746 l 885 746 l 1030 576 l 973 170 l 780 0 l 237 0 l 92 170 m 618 1051 l 718 848 l 576 848 l 475 1051 l 618 1051 z "},"á":{"ha":1017,"x_min":92,"x_max":1030,"o":"m 92 170 l 106 271 l 299 441 l 808 441 l 789 305 l 314 305 l 237 237 l 232 203 l 290 136 l 765 136 l 842 203 l 890 543 l 831 610 l 221 610 l 309 746 l 885 746 l 1030 576 l 973 170 l 780 0 l 237 0 l 92 170 m 838 1051 l 680 848 l 538 848 l 695 1051 l 838 1051 z "},"â":{"ha":1017,"x_min":92,"x_max":1030,"o":"m 92 170 l 106 271 l 299 441 l 808 441 l 789 305 l 314 305 l 237 237 l 232 203 l 290 136 l 765 136 l 842 203 l 890 543 l 831 610 l 221 610 l 309 746 l 885 746 l 1030 576 l 973 170 l 780 0 l 237 0 l 92 170 m 745 1051 l 865 848 l 709 848 l 647 983 l 547 848 l 391 848 l 568 1051 l 745 1051 z "},"ã":{"ha":1017,"x_min":92,"x_max":1030,"o":"m 92 170 l 106 271 l 299 441 l 808 441 l 789 305 l 314 305 l 237 237 l 232 203 l 290 136 l 765 136 l 842 203 l 890 543 l 831 610 l 221 610 l 309 746 l 885 746 l 1030 576 l 973 170 l 780 0 l 237 0 l 92 170 m 313 949 l 468 1085 l 617 1085 l 722 963 l 804 963 l 865 1017 l 875 1085 l 990 1085 l 976 983 l 821 848 l 673 848 l 671 845 l 567 970 l 486 970 l 424 916 l 414 848 l 299 848 l 313 949 z "},"ä":{"ha":1017,"x_min":92,"x_max":1030,"o":"m 92 170 l 106 271 l 299 441 l 808 441 l 789 305 l 314 305 l 237 237 l 232 203 l 290 136 l 765 136 l 842 203 l 890 543 l 831 610 l 221 610 l 309 746 l 885 746 l 1030 576 l 973 170 l 780 0 l 237 0 l 92 170 m 579 983 l 560 848 l 425 848 l 444 983 l 579 983 m 850 983 l 831 848 l 696 848 l 715 983 l 850 983 z "},"å":{"ha":1017,"x_min":92,"x_max":1030,"o":"m 92 170 l 106 271 l 299 441 l 808 441 l 789 305 l 314 305 l 237 237 l 232 203 l 290 136 l 765 136 l 842 203 l 890 543 l 831 610 l 221 610 l 309 746 l 885 746 l 1030 576 l 973 170 l 780 0 l 237 0 l 92 170 m 760 1187 l 848 1085 l 829 949 l 713 848 l 543 848 l 456 949 l 475 1085 l 591 1187 l 760 1187 m 572 1051 l 562 983 l 591 949 l 693 949 l 732 983 l 741 1051 l 712 1085 l 610 1085 l 572 1051 z "},"æ":{"ha":1763,"x_min":92,"x_max":1776,"o":"m 92 170 l 106 271 l 299 441 l 808 441 l 789 305 l 314 305 l 237 237 l 232 203 l 290 136 l 765 136 l 842 203 l 890 543 l 831 610 l 221 610 l 309 746 l 885 746 l 972 644 l 1088 746 l 1631 746 l 1776 576 l 1762 475 l 1569 305 l 1060 305 l 1079 441 l 1554 441 l 1631 509 l 1636 543 l 1577 610 l 1103 610 l 1025 543 l 978 203 l 1036 136 l 1647 136 l 1560 0 l 983 0 l 896 102 l 780 0 l 237 0 l 92 170 z "},"ç":{"ha":1017,"x_min":92,"x_max":1035,"o":"m 1035 610 l 357 610 l 279 543 l 232 203 l 290 136 l 968 136 l 882 0 l 237 0 l 92 170 l 149 576 l 342 746 l 987 746 l 1035 610 m 330 -305 l 488 -102 l 630 -102 l 473 -305 l 330 -305 z "},"è":{"ha":1017,"x_min":92,"x_max":1030,"o":"m 149 576 l 342 746 l 885 746 l 1030 576 l 1016 475 l 823 305 l 314 305 l 333 441 l 808 441 l 885 509 l 890 543 l 831 610 l 357 610 l 279 543 l 232 203 l 290 136 l 901 136 l 814 0 l 237 0 l 92 170 l 149 576 m 618 1051 l 718 848 l 576 848 l 475 1051 l 618 1051 z "},"é":{"ha":1017,"x_min":92,"x_max":1030,"o":"m 149 576 l 342 746 l 885 746 l 1030 576 l 1016 475 l 823 305 l 314 305 l 333 441 l 808 441 l 885 509 l 890 543 l 831 610 l 357 610 l 279 543 l 232 203 l 290 136 l 901 136 l 814 0 l 237 0 l 92 170 l 149 576 m 838 1051 l 680 848 l 538 848 l 695 1051 l 838 1051 z "},"ê":{"ha":1017,"x_min":92,"x_max":1030,"o":"m 149 576 l 342 746 l 885 746 l 1030 576 l 1016 475 l 823 305 l 314 305 l 333 441 l 808 441 l 885 509 l 890 543 l 831 610 l 357 610 l 279 543 l 232 203 l 290 136 l 901 136 l 814 0 l 237 0 l 92 170 l 149 576 m 745 1051 l 865 848 l 709 848 l 647 983 l 547 848 l 391 848 l 568 1051 l 745 1051 z "},"ë":{"ha":1017,"x_min":92,"x_max":1030,"o":"m 149 576 l 342 746 l 885 746 l 1030 576 l 1016 475 l 823 305 l 314 305 l 333 441 l 808 441 l 885 509 l 890 543 l 831 610 l 357 610 l 279 543 l 232 203 l 290 136 l 901 136 l 814 0 l 237 0 l 92 170 l 149 576 m 579 983 l 560 848 l 425 848 l 444 983 l 579 983 m 850 983 l 831 848 l 696 848 l 715 983 l 850 983 z "},"ì":{"ha":407,"x_min":181,"x_max":458,"o":"m 422 746 l 317 0 l 181 0 l 286 746 l 422 746 m 358 1051 l 458 848 l 316 848 l 216 1051 l 358 1051 z "},"í":{"ha":407,"x_min":90,"x_max":487,"o":"m 331 746 l 226 0 l 90 0 l 195 746 l 331 746 m 487 1051 l 330 848 l 187 848 l 345 1051 l 487 1051 z "},"î":{"ha":610,"x_min":187,"x_max":662,"o":"m 478 746 l 373 0 l 237 0 l 342 746 l 478 746 m 541 1051 l 662 848 l 506 848 l 444 983 l 343 848 l 187 848 l 365 1051 l 541 1051 z "},"ï":{"ha":543,"x_min":187,"x_max":613,"o":"m 444 746 l 339 0 l 203 0 l 309 746 l 444 746 m 342 983 l 323 848 l 187 848 l 206 983 l 342 983 m 613 983 l 594 848 l 458 848 l 477 983 l 613 983 z "},"ð":{"ha":1153,"x_min":92,"x_max":1204,"o":"m 92 170 l 130 441 l 323 610 l 831 610 l 812 475 l 338 475 l 260 407 l 232 203 l 290 136 l 765 136 l 842 203 l 919 746 l 512 746 l 526 848 l 933 848 l 947 949 l 1083 949 l 1069 848 l 1204 848 l 1190 746 l 1055 746 l 973 170 l 780 0 l 237 0 l 92 170 z "},"ñ":{"ha":1017,"x_min":68,"x_max":1030,"o":"m 279 543 l 203 0 l 68 0 l 149 576 l 342 746 l 885 746 l 1030 576 l 949 0 l 814 0 l 890 543 l 831 610 l 357 610 l 279 543 m 313 949 l 468 1085 l 617 1085 l 722 963 l 804 963 l 865 1017 l 875 1085 l 990 1085 l 976 983 l 821 848 l 673 848 l 671 845 l 567 970 l 486 970 l 424 916 l 414 848 l 299 848 l 313 949 z "},"ò":{"ha":1017,"x_min":92,"x_max":1030,"o":"m 1030 576 l 973 170 l 780 0 l 237 0 l 92 170 l 149 576 l 342 746 l 885 746 l 1030 576 m 279 543 l 232 203 l 290 136 l 765 136 l 842 203 l 890 543 l 831 610 l 357 610 l 279 543 m 618 1051 l 718 848 l 576 848 l 475 1051 l 618 1051 z "},"ó":{"ha":1017,"x_min":92,"x_max":1030,"o":"m 1030 576 l 973 170 l 780 0 l 237 0 l 92 170 l 149 576 l 342 746 l 885 746 l 1030 576 m 279 543 l 232 203 l 290 136 l 765 136 l 842 203 l 890 543 l 831 610 l 357 610 l 279 543 m 838 1051 l 680 848 l 538 848 l 695 1051 l 838 1051 z "},"ô":{"ha":1017,"x_min":92,"x_max":1030,"o":"m 1030 576 l 973 170 l 780 0 l 237 0 l 92 170 l 149 576 l 342 746 l 885 746 l 1030 576 m 279 543 l 232 203 l 290 136 l 765 136 l 842 203 l 890 543 l 831 610 l 357 610 l 279 543 m 745 1051 l 865 848 l 709 848 l 647 983 l 547 848 l 391 848 l 568 1051 l 745 1051 z "},"õ":{"ha":1017,"x_min":92,"x_max":1030,"o":"m 1030 576 l 973 170 l 780 0 l 237 0 l 92 170 l 149 576 l 342 746 l 885 746 l 1030 576 m 279 543 l 232 203 l 290 136 l 765 136 l 842 203 l 890 543 l 831 610 l 357 610 l 279 543 m 313 949 l 468 1085 l 617 1085 l 722 963 l 804 963 l 865 1017 l 875 1085 l 990 1085 l 976 983 l 821 848 l 673 848 l 671 845 l 567 970 l 486 970 l 424 916 l 414 848 l 299 848 l 313 949 z "},"ö":{"ha":1017,"x_min":92,"x_max":1030,"o":"m 1030 576 l 973 170 l 780 0 l 237 0 l 92 170 l 149 576 l 342 746 l 885 746 l 1030 576 m 279 543 l 232 203 l 290 136 l 765 136 l 842 203 l 890 543 l 831 610 l 357 610 l 279 543 m 579 983 l 560 848 l 425 848 l 444 983 l 579 983 m 850 983 l 831 848 l 696 848 l 715 983 l 850 983 z "},"÷":{"ha":746,"x_min":125,"x_max":754,"o":"m 144 543 l 754 543 l 735 407 l 125 407 l 144 543 m 474 237 l 455 102 l 319 102 l 338 237 l 474 237 m 560 848 l 541 712 l 406 712 l 425 848 l 560 848 z "},"ø":{"ha":1017,"x_min":92,"x_max":1030,"o":"m 1030 576 l 973 170 l 780 0 l 237 0 l 92 170 l 149 576 l 342 746 l 885 746 l 1030 576 m 765 136 l 842 203 l 890 543 l 882 551 l 338 136 l 765 136 m 279 543 l 232 203 l 234 201 l 770 610 l 357 610 l 279 543 z "},"ù":{"ha":1017,"x_min":92,"x_max":1055,"o":"m 92 170 l 173 746 l 309 746 l 232 203 l 290 136 l 765 136 l 842 203 l 919 746 l 1055 746 l 973 170 l 780 0 l 237 0 l 92 170 m 618 1051 l 718 848 l 576 848 l 475 1051 l 618 1051 z "},"ú":{"ha":1017,"x_min":92,"x_max":1055,"o":"m 92 170 l 173 746 l 309 746 l 232 203 l 290 136 l 765 136 l 842 203 l 919 746 l 1055 746 l 973 170 l 780 0 l 237 0 l 92 170 m 838 1051 l 680 848 l 538 848 l 695 1051 l 838 1051 z "},"û":{"ha":1017,"x_min":92,"x_max":1055,"o":"m 92 170 l 173 746 l 309 746 l 232 203 l 290 136 l 765 136 l 842 203 l 919 746 l 1055 746 l 973 170 l 780 0 l 237 0 l 92 170 m 745 1051 l 865 848 l 709 848 l 647 983 l 547 848 l 391 848 l 568 1051 l 745 1051 z "},"ü":{"ha":1017,"x_min":92,"x_max":1055,"o":"m 92 170 l 173 746 l 309 746 l 232 203 l 290 136 l 765 136 l 842 203 l 919 746 l 1055 746 l 973 170 l 780 0 l 237 0 l 92 170 m 579 983 l 560 848 l 425 848 l 444 983 l 579 983 m 850 983 l 831 848 l 696 848 l 715 983 l 850 983 z "},"ý":{"ha":1017,"x_min":134,"x_max":1055,"o":"m 973 170 l 780 0 l 203 0 l 155 136 l 765 136 l 842 203 l 857 305 l 280 305 l 134 475 l 173 746 l 309 746 l 275 509 l 333 441 l 876 441 l 919 746 l 1055 746 l 973 170 m 838 1051 l 680 848 l 538 848 l 695 1051 l 838 1051 z "},"þ":{"ha":1017,"x_min":68,"x_max":1030,"o":"m 201 949 l 337 949 l 309 746 l 885 746 l 1030 576 l 1002 373 l 808 203 l 300 203 l 319 339 l 793 339 l 871 407 l 890 543 l 831 610 l 289 610 l 203 0 l 68 0 l 201 949 z "},"ÿ":{"ha":1017,"x_min":134,"x_max":1055,"o":"m 973 170 l 780 0 l 203 0 l 155 136 l 765 136 l 842 203 l 857 305 l 280 305 l 134 475 l 173 746 l 309 746 l 275 509 l 333 441 l 876 441 l 919 746 l 1055 746 l 973 170 m 579 983 l 560 848 l 425 848 l 444 983 l 579 983 m 850 983 l 831 848 l 696 848 l 715 983 l 850 983 z "},"Č":{"ha":1153,"x_min":92,"x_max":1200,"o":"m 232 203 l 290 136 l 1104 136 l 1017 0 l 237 0 l 92 170 l 178 780 l 371 949 l 1151 949 l 1200 814 l 386 814 l 309 746 l 232 203 m 636 1051 l 515 1255 l 671 1255 l 734 1119 l 834 1255 l 990 1255 l 812 1051 l 636 1051 z "},"č":{"ha":1017,"x_min":92,"x_max":1035,"o":"m 1035 610 l 357 610 l 279 543 l 232 203 l 290 136 l 968 136 l 882 0 l 237 0 l 92 170 l 149 576 l 342 746 l 987 746 l 1035 610 m 540 848 l 419 1051 l 575 1051 l 637 916 l 738 1051 l 894 1051 l 716 848 l 540 848 z "},"Ď":{"ha":1153,"x_min":68,"x_max":1195,"o":"m 201 949 l 1049 949 l 1195 780 l 1109 170 l 916 0 l 68 0 l 201 949 m 318 814 l 222 136 l 901 136 l 978 203 l 1055 746 l 996 814 l 318 814 m 636 1051 l 515 1255 l 671 1255 l 734 1119 l 834 1255 l 990 1255 l 812 1051 l 636 1051 z "},"ď":{"ha":1289,"x_min":92,"x_max":1354,"o":"m 92 170 l 149 576 l 342 746 l 851 746 l 831 610 l 357 610 l 279 543 l 232 203 l 290 136 l 765 136 l 842 203 l 947 949 l 1083 949 l 973 170 l 780 0 l 237 0 l 92 170 m 1354 949 l 1312 644 l 1171 610 l 1219 949 l 1354 949 z "},"Ě":{"ha":1153,"x_min":92,"x_max":1200,"o":"m 1161 543 l 1142 407 l 260 407 l 232 203 l 290 136 l 1104 136 l 1017 0 l 237 0 l 92 170 l 178 780 l 371 949 l 1151 949 l 1200 814 l 386 814 l 309 746 l 279 543 l 1161 543 m 636 1051 l 515 1255 l 671 1255 l 734 1119 l 834 1255 l 990 1255 l 812 1051 l 636 1051 z "},"ě":{"ha":1017,"x_min":92,"x_max":1030,"o":"m 149 576 l 342 746 l 885 746 l 1030 576 l 1016 475 l 823 305 l 314 305 l 333 441 l 808 441 l 885 509 l 890 543 l 831 610 l 357 610 l 279 543 l 232 203 l 290 136 l 901 136 l 814 0 l 237 0 l 92 170 l 149 576 m 540 848 l 419 1051 l 575 1051 l 637 916 l 738 1051 l 894 1051 l 716 848 l 540 848 z "},"ı":{"ha":271,"x_min":68,"x_max":309,"o":"m 309 746 l 203 0 l 68 0 l 173 746 l 309 746 z "},"Ň":{"ha":1153,"x_min":68,"x_max":1195,"o":"m 386 814 l 309 746 l 203 0 l 68 0 l 178 780 l 371 949 l 1049 949 l 1195 780 l 1085 0 l 949 0 l 1055 746 l 996 814 l 386 814 m 636 1051 l 515 1255 l 671 1255 l 734 1119 l 834 1255 l 990 1255 l 812 1051 l 636 1051 z "},"ň":{"ha":1017,"x_min":68,"x_max":1030,"o":"m 279 543 l 203 0 l 68 0 l 149 576 l 342 746 l 885 746 l 1030 576 l 949 0 l 814 0 l 890 543 l 831 610 l 357 610 l 279 543 m 540 848 l 419 1051 l 575 1051 l 637 916 l 738 1051 l 894 1051 l 716 848 l 540 848 z "},"Œ":{"ha":2035,"x_min":92,"x_max":2081,"o":"m 178 780 l 371 949 l 1049 949 l 1137 848 l 1253 949 l 2032 949 l 2081 814 l 1267 814 l 1190 746 l 1161 543 l 2043 543 l 2024 407 l 1142 407 l 1114 203 l 1172 136 l 1986 136 l 1899 0 l 1119 0 l 1031 102 l 916 0 l 237 0 l 92 170 l 178 780 m 386 814 l 309 746 l 232 203 l 290 136 l 901 136 l 978 203 l 1055 746 l 996 814 l 386 814 z "},"œ":{"ha":1763,"x_min":92,"x_max":1776,"o":"m 972 644 l 1088 746 l 1631 746 l 1776 576 l 1762 475 l 1569 305 l 1060 305 l 1079 441 l 1554 441 l 1631 509 l 1636 543 l 1577 610 l 1103 610 l 1025 543 l 978 203 l 1036 136 l 1647 136 l 1560 0 l 983 0 l 896 102 l 780 0 l 237 0 l 92 170 l 149 576 l 342 746 l 885 746 l 972 644 m 279 543 l 232 203 l 290 136 l 765 136 l 842 203 l 890 543 l 831 610 l 357 610 l 279 543 z "},"Ř":{"ha":1153,"x_min":68,"x_max":1195,"o":"m 1049 949 l 1195 780 l 1156 509 l 1040 407 l 1128 305 l 1085 0 l 949 0 l 987 271 l 929 339 l 319 339 l 338 475 l 948 475 l 1025 543 l 1055 746 l 996 814 l 318 814 l 203 0 l 68 0 l 201 949 l 1049 949 m 636 1051 l 515 1255 l 671 1255 l 734 1119 l 834 1255 l 990 1255 l 812 1051 l 636 1051 z "},"ř":{"ha":814,"x_min":68,"x_max":831,"o":"m 831 610 l 357 610 l 279 543 l 203 0 l 68 0 l 149 576 l 342 746 l 783 746 l 831 610 m 438 848 l 317 1051 l 473 1051 l 536 916 l 636 1051 l 792 1051 l 614 848 l 438 848 z "},"Š":{"ha":1153,"x_min":87,"x_max":1200,"o":"m 136 0 l 87 136 l 901 136 l 978 203 l 997 339 l 939 407 l 294 407 l 149 576 l 178 780 l 371 949 l 1151 949 l 1200 814 l 386 814 l 309 746 l 289 610 l 347 543 l 991 543 l 1137 373 l 1109 170 l 916 0 l 136 0 m 636 1051 l 515 1255 l 671 1255 l 734 1119 l 834 1255 l 990 1255 l 812 1051 l 636 1051 z "},"š":{"ha":1017,"x_min":87,"x_max":1035,"o":"m 842 441 l 987 271 l 973 170 l 780 0 l 136 0 l 87 136 l 765 136 l 842 203 l 847 237 l 789 305 l 280 305 l 134 475 l 149 576 l 342 746 l 987 746 l 1035 610 l 357 610 l 279 543 l 275 509 l 333 441 l 842 441 m 540 848 l 419 1051 l 575 1051 l 637 916 l 738 1051 l 894 1051 l 716 848 l 540 848 z "},"Ť":{"ha":1153,"x_min":182,"x_max":1219,"o":"m 1219 949 l 1200 814 l 759 814 l 644 0 l 509 0 l 623 814 l 182 814 l 201 949 l 1219 949 m 636 1051 l 515 1255 l 671 1255 l 734 1119 l 834 1255 l 990 1255 l 812 1051 l 636 1051 z "},"ť":{"ha":1085,"x_min":153,"x_max":1151,"o":"m 309 746 l 328 882 l 473 949 l 444 746 l 851 746 l 831 610 l 425 610 l 368 203 l 426 136 l 765 136 l 678 0 l 373 0 l 227 170 l 289 610 l 153 610 l 173 746 l 309 746 m 1151 949 l 1108 644 l 967 610 l 1015 949 l 1151 949 z "},"Ů":{"ha":1153,"x_min":92,"x_max":1219,"o":"m 901 136 l 978 203 l 1083 949 l 1219 949 l 1109 170 l 916 0 l 237 0 l 92 170 l 201 949 l 337 949 l 232 203 l 290 136 l 901 136 m 857 1390 l 944 1289 l 925 1153 l 809 1051 l 640 1051 l 552 1153 l 571 1289 l 687 1390 l 857 1390 m 668 1255 l 659 1187 l 688 1153 l 789 1153 l 828 1187 l 838 1255 l 808 1289 l 707 1289 l 668 1255 z "},"ů":{"ha":1017,"x_min":92,"x_max":1055,"o":"m 92 170 l 173 746 l 309 746 l 232 203 l 290 136 l 765 136 l 842 203 l 919 746 l 1055 746 l 973 170 l 780 0 l 237 0 l 92 170 m 760 1187 l 848 1085 l 829 949 l 713 848 l 543 848 l 456 949 l 475 1085 l 591 1187 l 760 1187 m 572 1051 l 562 983 l 591 949 l 693 949 l 732 983 l 741 1051 l 712 1085 l 610 1085 l 572 1051 z "},"Ÿ":{"ha":1153,"x_min":144,"x_max":1219,"o":"m 201 949 l 337 949 l 291 624 l 611 488 l 679 488 l 1037 624 l 1083 949 l 1219 949 l 1161 543 l 694 353 l 644 0 l 509 0 l 558 353 l 144 543 l 201 949 m 675 1187 l 656 1051 l 521 1051 l 540 1187 l 675 1187 m 947 1187 l 928 1051 l 792 1051 l 811 1187 l 947 1187 z "},"Ž":{"ha":1153,"x_min":68,"x_max":1219,"o":"m 68 0 l 87 136 l 996 814 l 182 814 l 201 949 l 1219 949 l 1200 814 l 290 136 l 1104 136 l 1085 0 l 68 0 m 636 1051 l 515 1255 l 671 1255 l 734 1119 l 834 1255 l 990 1255 l 812 1051 l 636 1051 z "},"ž":{"ha":1017,"x_min":68,"x_max":1055,"o":"m 68 0 l 87 136 l 811 610 l 153 610 l 173 746 l 1055 746 l 1035 610 l 311 136 l 968 136 l 949 0 l 68 0 m 540 848 l 419 1051 l 575 1051 l 637 916 l 738 1051 l 894 1051 l 716 848 l 540 848 z "},"ƒ":{"ha":949,"x_min":87,"x_max":996,"o":"m 87 136 l 290 136 l 368 203 l 415 543 l 279 543 l 299 678 l 435 678 l 449 780 l 642 949 l 947 949 l 996 814 l 657 814 l 580 746 l 570 678 l 977 678 l 958 543 l 551 543 l 498 170 l 305 0 l 136 0 l 87 136 z "},"ˆ":{"ha":610,"x_min":187,"x_max":662,"o":"m 541 1051 l 662 848 l 506 848 l 444 983 l 343 848 l 187 848 l 365 1051 l 541 1051 z "},"ˇ":{"ha":610,"x_min":216,"x_max":690,"o":"m 336 848 l 216 1051 l 372 1051 l 434 916 l 534 1051 l 690 1051 l 513 848 l 336 848 z "},"˘":{"ha":509,"x_min":201,"x_max":593,"o":"m 220 1085 l 322 1085 l 308 983 l 337 949 l 439 949 l 477 983 l 492 1085 l 593 1085 l 574 949 l 458 848 l 289 848 l 201 949 l 220 1085 z "},"˙":{"ha":271,"x_min":187,"x_max":342,"o":"m 342 983 l 323 848 l 187 848 l 206 983 l 342 983 z "},"˚":{"ha":509,"x_min":201,"x_max":593,"o":"m 506 1187 l 593 1085 l 574 949 l 458 848 l 289 848 l 201 949 l 220 1085 l 336 1187 l 506 1187 m 317 1051 l 308 983 l 337 949 l 439 949 l 477 983 l 487 1051 l 458 1085 l 356 1085 l 317 1051 z "},"˛":{"ha":407,"x_min":54,"x_max":296,"o":"m 154 -305 l 54 -102 l 196 -102 l 296 -305 l 154 -305 z "},"˜":{"ha":793,"x_min":187,"x_max":878,"o":"m 201 949 l 356 1085 l 505 1085 l 610 963 l 692 963 l 753 1017 l 763 1085 l 878 1085 l 864 983 l 709 848 l 562 848 l 559 845 l 455 970 l 374 970 l 312 916 l 302 848 l 187 848 l 201 949 z "},"˝":{"ha":678,"x_min":187,"x_max":758,"o":"m 487 1051 l 330 848 l 187 848 l 345 1051 l 487 1051 m 758 1051 l 601 848 l 458 848 l 616 1051 l 758 1051 z "},"–":{"ha":746,"x_min":125,"x_max":754,"o":"m 144 543 l 754 543 l 735 407 l 125 407 l 144 543 z "},"—":{"ha":1017,"x_min":125,"x_max":1025,"o":"m 144 543 l 1025 543 l 1006 407 l 125 407 l 144 543 z "},"‘":{"ha":271,"x_min":159,"x_max":337,"o":"m 337 949 l 289 610 l 159 644 l 201 949 l 337 949 z "},"’":{"ha":271,"x_min":153,"x_max":337,"o":"m 337 949 l 294 644 l 153 610 l 201 949 l 337 949 z "},"‚":{"ha":271,"x_min":39,"x_max":222,"o":"m 222 136 l 180 -170 l 39 -203 l 87 136 l 222 136 z "},"“":{"ha":543,"x_min":159,"x_max":608,"o":"m 608 949 l 560 610 l 430 644 l 473 949 l 608 949 m 337 949 l 289 610 l 159 644 l 201 949 l 337 949 z "},"”":{"ha":543,"x_min":153,"x_max":608,"o":"m 337 949 l 294 644 l 153 610 l 201 949 l 337 949 m 608 949 l 566 644 l 425 610 l 473 949 l 608 949 z "},"„":{"ha":543,"x_min":39,"x_max":494,"o":"m 222 136 l 180 -170 l 39 -203 l 87 136 l 222 136 m 494 136 l 451 -170 l 311 -203 l 358 136 l 494 136 z "},"†":{"ha":746,"x_min":153,"x_max":783,"o":"m 574 949 l 546 746 l 783 746 l 764 610 l 526 610 l 441 0 l 305 0 l 391 610 l 153 610 l 173 746 l 410 746 l 439 949 l 574 949 z "},"‡":{"ha":746,"x_min":96,"x_max":783,"o":"m 574 949 l 546 746 l 783 746 l 764 610 l 526 610 l 488 339 l 726 339 l 707 203 l 469 203 l 441 0 l 305 0 l 334 203 l 96 203 l 115 339 l 353 339 l 391 610 l 153 610 l 173 746 l 410 746 l 439 949 l 574 949 z "},"•":{"ha":407,"x_min":115,"x_max":425,"o":"m 115 339 l 153 610 l 425 610 l 387 339 l 115 339 z "},"…":{"ha":814,"x_min":68,"x_max":765,"o":"m 222 136 l 203 0 l 68 0 l 87 136 l 222 136 m 494 136 l 475 0 l 339 0 l 358 136 l 494 136 m 765 136 l 746 0 l 610 0 l 629 136 l 765 136 z "},"‰":{"ha":2035,"x_min":149,"x_max":2019,"o":"m 1476 373 l 1670 543 l 1873 543 l 2019 373 l 1990 170 l 1797 0 l 1594 0 l 1448 170 l 1476 373 m 1059 543 l 1263 543 l 1409 373 l 1380 170 l 1187 0 l 983 0 l 838 170 l 866 373 l 1059 543 m 371 949 l 574 949 l 720 780 l 691 576 l 498 407 l 294 407 l 149 576 l 178 780 l 371 949 m 203 0 l 1185 949 l 1354 949 l 373 0 l 203 0 m 1685 407 l 1607 339 l 1588 203 l 1647 136 l 1782 136 l 1860 203 l 1879 339 l 1820 407 l 1685 407 m 386 814 l 309 746 l 289 610 l 347 543 l 483 543 l 560 610 l 580 746 l 522 814 l 386 814 m 1074 407 l 997 339 l 978 203 l 1036 136 l 1172 136 l 1249 203 l 1268 339 l 1210 407 l 1074 407 z "},"‹":{"ha":407,"x_min":125,"x_max":454,"o":"m 454 814 l 430 644 l 236 475 l 382 305 l 358 136 l 125 407 l 144 543 l 454 814 z "},"›":{"ha":407,"x_min":87,"x_max":415,"o":"m 415 543 l 396 407 l 87 136 l 111 305 l 304 475 l 159 644 l 182 814 l 415 543 z "},"€":{"ha":1153,"x_min":106,"x_max":1200,"o":"m 299 678 l 313 780 l 507 949 l 1151 949 l 1200 814 l 522 814 l 444 746 l 435 678 l 976 678 l 911 543 l 415 543 l 396 407 l 848 407 l 785 271 l 377 271 l 368 203 l 426 136 l 1104 136 l 1017 0 l 373 0 l 227 170 l 241 271 l 106 271 l 125 407 l 260 407 l 279 543 l 144 543 l 163 678 l 299 678 z "},"™":{"ha":1390,"x_min":184,"x_max":1442,"o":"m 1026 475 l 1077 834 l 979 834 l 940 800 l 894 475 l 779 475 l 831 848 l 947 949 l 1354 949 l 1442 848 l 1389 475 l 1280 475 l 1325 793 l 1291 834 l 1192 834 l 1141 475 l 1026 475 m 348 475 l 397 827 l 184 827 l 201 949 l 744 949 l 726 827 l 513 827 l 463 475 l 348 475 z "}}}
